<svg width="220" height="220" viewBox="0 0 220 220" fill="none" xmlns="http://www.w3.org/2000/svg">
<path fill-rule="evenodd" clip-rule="evenodd" d="M110 220C170.751 220 220 170.751 220 110C220 49.2487 170.751 0 110 0C49.2487 0 0 49.2487 0 110C0 170.751 49.2487 220 110 220ZM131.334 38.0336L111.556 26.4973C111.103 26.2214 110.57 26.0625 110 26.0625C109.967 26.0625 109.935 26.0631 109.902 26.0641C109.369 26.0812 108.872 26.2371 108.444 26.4968L88.666 38.0336C87.2348 38.8685 86.7514 40.7054 87.5862 42.1366C88.421 43.5677 90.2579 44.0512 91.6891 43.2164L107 34.2855V57.9688C107 59.6256 108.343 60.9688 110 60.9688C111.657 60.9688 113 59.6256 113 57.9688V34.2855L128.311 43.2164C129.742 44.0512 131.579 43.5677 132.414 42.1366C133.249 40.7054 132.765 38.8685 131.334 38.0336ZM91.6891 176.784C90.2579 175.949 88.421 176.432 87.5862 177.863C86.7514 179.295 87.2348 181.132 88.666 181.966L108.488 193.529C109.423 194.074 110.577 194.074 111.512 193.529L131.334 181.966C132.765 181.132 133.249 179.295 132.414 177.863C131.579 176.432 129.742 175.949 128.311 176.784L110 187.464L91.6891 176.784ZM62.4102 56.6159C63.2551 58.0411 62.7847 59.8815 61.3595 60.7264L46.5019 69.5347L66.4717 81.4056C67.8959 82.2522 68.3642 84.0931 67.5176 85.5173C66.6709 86.9416 64.8301 87.4098 63.4058 86.5632L43.625 74.8046V92.4792C43.625 94.1361 42.2819 95.4792 40.625 95.4792C38.9682 95.4792 37.625 94.1361 37.625 92.4792V69.5812C37.6155 69.0428 37.7509 68.4952 38.0462 67.9983C38.3224 67.5338 38.7043 67.1709 39.1431 66.9222L58.2997 55.5652C59.7249 54.7203 61.5652 55.1907 62.4102 56.6159ZM179.375 124.521C181.032 124.521 182.375 125.864 182.375 127.521V150.418C182.385 150.957 182.249 151.505 181.954 152.002C181.678 152.466 181.296 152.829 180.857 153.078L161.7 164.435C160.275 165.28 158.435 164.809 157.59 163.384C156.745 161.959 157.215 160.119 158.641 159.274L173.498 150.465L153.528 138.594C152.104 137.748 151.636 135.907 152.482 134.483C153.329 133.058 155.17 132.59 156.594 133.437L176.375 145.195V127.521C176.375 125.864 177.718 124.521 179.375 124.521ZM40.625 124.521C42.2819 124.521 43.625 125.864 43.625 127.521V145.169L63.16 133.443C64.5806 132.591 66.4234 133.051 67.2761 134.472C68.1288 135.892 67.6685 137.735 66.2479 138.588L46.4477 150.473L61.377 159.461C62.7964 160.316 63.2543 162.159 62.3997 163.579C61.5451 164.998 59.7017 165.456 58.2822 164.601L39.1263 153.068C38.7148 152.831 38.3541 152.494 38.0849 152.065C38.066 152.035 38.0475 152.004 38.0296 151.973C37.746 151.485 37.6159 150.948 37.625 150.42V127.521C37.625 125.864 38.9682 124.521 40.625 124.521ZM157.59 56.6159C158.435 55.1907 160.275 54.7203 161.7 55.5652L180.857 66.9222C181.296 67.1708 181.678 67.5337 181.954 67.9983C182.249 68.4955 182.385 69.0435 182.375 69.5822V92.4792C182.375 94.1361 181.032 95.4792 179.375 95.4792C177.718 95.4792 176.375 94.1361 176.375 92.4792V74.8046L156.594 86.5632C155.17 87.4098 153.329 86.9416 152.482 85.5173C151.636 84.0931 152.104 82.2522 153.528 81.4056L173.498 69.5347L158.641 60.7264C157.215 59.8815 156.745 58.0411 157.59 56.6159ZM132.414 96.926C133.249 98.3571 132.765 100.194 131.334 101.029L113 111.723V133.125C113 134.782 111.657 136.125 110 136.125C108.343 136.125 107 134.782 107 133.125V111.723L88.666 101.029C87.2348 100.194 86.7514 98.3571 87.5862 96.926C88.421 95.4948 90.2579 95.0113 91.6891 95.8461L110 106.527L128.311 95.8461C129.742 95.0113 131.579 95.4948 132.414 96.926ZM90.8008 149.648C86.1524 149.648 82.3633 145.547 82.3633 140.527C82.3633 135.566 86.1719 131.562 90.8008 131.562C95.4688 131.562 99.2383 135.488 99.2383 140.488C99.2383 145.527 95.4492 149.648 90.8008 149.648ZM90.8008 146.699C93.6719 146.699 96.0938 143.945 96.0938 140.488C96.0938 137.07 93.711 134.512 90.8008 134.512C87.9102 134.512 85.5078 137.129 85.5078 140.527C85.5078 143.984 87.9492 146.699 90.8008 146.699ZM78.5156 167.734C75.2735 167.734 73.7305 166.758 73.7305 164.609C73.7305 159.492 80.1953 152.09 90.8008 152.09C99.6471 152.09 105.615 157.259 107.338 161.944C110.638 156.592 117.893 151.55 127.967 151.55C141.994 151.55 150.56 161.358 150.56 168.139C150.56 170.985 148.515 172.279 144.219 172.279H111.689C107.394 172.279 105.349 170.985 105.349 168.139C105.349 167.93 105.357 167.719 105.373 167.505C104.733 167.659 103.965 167.734 103.066 167.734H78.5156ZM77.5977 164.785H104.004C104.512 164.785 104.707 164.648 104.707 164.238C104.707 161.016 99.7461 155.039 90.8008 155.039C81.836 155.039 76.875 161.016 76.875 164.238C76.875 164.648 77.0899 164.785 77.5977 164.785ZM116.788 136.23C116.788 142.881 121.808 148.315 127.967 148.315C134.126 148.315 139.147 142.855 139.147 136.178C139.147 129.553 134.152 124.352 127.967 124.352C121.834 124.352 116.788 129.657 116.788 136.23ZM134.98 136.178C134.98 140.759 131.771 144.408 127.967 144.408C124.189 144.408 120.954 140.811 120.954 136.23C120.954 131.727 124.137 128.259 127.967 128.259C131.823 128.259 134.98 131.649 134.98 136.178ZM146.393 167.647C146.393 168.19 146.134 168.372 145.461 168.372H110.473C109.8 168.372 109.516 168.19 109.516 167.647C109.516 163.377 116.089 155.458 127.967 155.458C139.82 155.458 146.393 163.377 146.393 167.647Z" fill="#F2E900"/>
</svg>
