<svg width="262" height="242" viewBox="0 0 262 242" fill="none" xmlns="http://www.w3.org/2000/svg">
<g opacity="0.6" filter="url(#filter0_f_534_118)">
<path d="M139.706 92.1588C139.706 86.2201 144.358 78.9988 150.098 76.0295L202 39.9349C207.74 36.9655 219.705 44.8324 219.705 50.771L219.705 159.027C219.705 164.966 215.053 172.187 209.313 175.157L150.098 205.791C144.358 208.761 130 203.134 130 197.195L139.706 92.1588Z" fill="url(#paint0_linear_534_118)"/>
<rect width="86.5006" height="135.602" rx="12" transform="matrix(0.924848 -0.478468 9.54863e-08 0.956935 130 76.8422)" fill="url(#paint1_linear_534_118)"/>
<rect width="77.3033" height="121.184" rx="8" transform="matrix(0.924848 -0.478468 9.54863e-08 0.956935 134.253 81.5405)" fill="white" fill-opacity="0.2"/>
<path d="M145.751 181.126L192.751 156.932" stroke="black" stroke-opacity="0.07" stroke-width="3" stroke-linecap="round"/>
<path d="M145.751 162.308L192.751 138.114" stroke="black" stroke-opacity="0.07" stroke-width="3" stroke-linecap="round"/>
<path d="M145.751 143.491L192.751 119.297" stroke="black" stroke-opacity="0.07" stroke-width="3" stroke-linecap="round"/>
<path d="M145.751 124.673L192.751 100.479" stroke="black" stroke-opacity="0.07" stroke-width="3" stroke-linecap="round"/>
<path d="M145.751 105.856L192.751 81.6617" stroke="black" stroke-opacity="0.07" stroke-width="3" stroke-linecap="round"/>
<path d="M145.751 87.0381L192.751 62.8442" stroke="black" stroke-opacity="0.07" stroke-width="3" stroke-linecap="round"/>
<path d="M121.856 92.1588C121.856 86.2201 117.203 78.9988 111.464 76.0295L59.5615 39.9349C53.822 36.9655 41.8561 44.8324 41.8561 50.771L41.856 159.027C41.856 164.966 46.5088 172.187 52.2483 175.157L111.464 205.791C117.203 208.761 131.562 203.134 131.562 197.195L121.856 92.1588Z" fill="url(#paint2_linear_534_118)"/>
<rect width="86.5006" height="135.602" rx="12" transform="matrix(-0.924848 -0.478468 -9.54863e-08 0.956935 131.562 76.8422)" fill="url(#paint3_linear_534_118)"/>
<rect width="77.3033" height="121.184" rx="8" transform="matrix(-0.924848 -0.478468 -9.54863e-08 0.956935 127.309 81.5405)" fill="white" fill-opacity="0.2"/>
<path d="M115.811 181.126L68.8105 156.932" stroke="black" stroke-opacity="0.07" stroke-width="3" stroke-linecap="round"/>
<path d="M115.811 162.308L68.8105 138.114" stroke="black" stroke-opacity="0.07" stroke-width="3" stroke-linecap="round"/>
<path d="M115.811 143.491L68.8105 119.297" stroke="black" stroke-opacity="0.07" stroke-width="3" stroke-linecap="round"/>
<path d="M115.811 124.673L68.8105 100.479" stroke="black" stroke-opacity="0.07" stroke-width="3" stroke-linecap="round"/>
<path d="M115.811 105.856L68.8105 81.6617" stroke="black" stroke-opacity="0.07" stroke-width="3" stroke-linecap="round"/>
<path d="M115.811 87.0381L68.8105 62.8442" stroke="black" stroke-opacity="0.07" stroke-width="3" stroke-linecap="round"/>
</g>
<path d="M139.706 87.6784C139.706 81.7398 144.358 74.5184 150.098 71.5491L202 35.4545C207.74 32.4852 219.705 40.352 219.705 46.2907L219.705 154.547C219.705 160.486 215.053 167.707 209.313 170.676L150.098 201.311C144.358 204.28 130 198.654 130 192.715L139.706 87.6784Z" fill="url(#paint4_linear_534_118)"/>
<rect width="86.5006" height="135.602" rx="12" transform="matrix(0.924848 -0.478468 9.54863e-08 0.956935 130 72.3618)" fill="url(#paint5_linear_534_118)"/>
<rect width="77.3033" height="121.184" rx="8" transform="matrix(0.924848 -0.478468 9.54863e-08 0.956935 134.253 77.0602)" fill="white" fill-opacity="0.4"/>
<path d="M145.751 176.645L192.751 152.451" stroke="black" stroke-opacity="0.07" stroke-width="3" stroke-linecap="round"/>
<path d="M145.751 157.828L192.751 133.634" stroke="black" stroke-opacity="0.07" stroke-width="3" stroke-linecap="round"/>
<path d="M145.751 139.01L192.751 114.816" stroke="black" stroke-opacity="0.07" stroke-width="3" stroke-linecap="round"/>
<path d="M145.751 120.193L192.751 95.9989" stroke="black" stroke-opacity="0.07" stroke-width="3" stroke-linecap="round"/>
<path d="M145.751 101.375L192.751 77.1814" stroke="black" stroke-opacity="0.07" stroke-width="3" stroke-linecap="round"/>
<path d="M145.751 82.5578L192.751 58.3639" stroke="black" stroke-opacity="0.07" stroke-width="3" stroke-linecap="round"/>
<path d="M121.856 87.6784C121.856 81.7398 117.203 74.5184 111.464 71.5491L59.5615 35.4545C53.822 32.4852 41.8561 40.352 41.8561 46.2907L41.856 154.547C41.856 160.486 46.5088 167.707 52.2483 170.676L111.464 201.311C117.203 204.28 131.562 198.654 131.562 192.715L121.856 87.6784Z" fill="url(#paint6_linear_534_118)"/>
<rect width="86.5006" height="135.602" rx="12" transform="matrix(-0.924848 -0.478468 -9.54863e-08 0.956935 131.562 72.3618)" fill="url(#paint7_linear_534_118)"/>
<rect width="77.3033" height="121.184" rx="8" transform="matrix(-0.924848 -0.478468 -9.54863e-08 0.956935 127.309 77.0602)" fill="white" fill-opacity="0.4"/>
<path d="M115.811 176.645L68.8105 152.451" stroke="black" stroke-opacity="0.07" stroke-width="3" stroke-linecap="round"/>
<path d="M115.811 157.828L68.8105 133.634" stroke="black" stroke-opacity="0.07" stroke-width="3" stroke-linecap="round"/>
<path d="M115.811 139.01L68.8105 114.816" stroke="black" stroke-opacity="0.07" stroke-width="3" stroke-linecap="round"/>
<path d="M115.811 120.193L68.8105 95.9989" stroke="black" stroke-opacity="0.07" stroke-width="3" stroke-linecap="round"/>
<path d="M115.811 101.375L68.8105 77.1814" stroke="black" stroke-opacity="0.07" stroke-width="3" stroke-linecap="round"/>
<path d="M115.811 82.5578L68.8105 58.3639" stroke="black" stroke-opacity="0.07" stroke-width="3" stroke-linecap="round"/>
<g opacity="0.2" filter="url(#filter1_iif_534_118)">
<path d="M169.89 70.7735L130.445 48L91 70.7735L130.445 93.547L169.89 70.7735Z" fill="#F40058"/>
<path d="M169.816 116.321V70.7735L130.371 93.547L130.371 139.094L169.816 116.321Z" fill="#A6003C"/>
<path d="M130.445 93.547V139.094L91 116.32L91 70.7735L130.445 93.547Z" fill="#CB0049"/>
</g>
<g filter="url(#filter2_ii_534_118)">
<path d="M170.014 45.7735L130.569 23L91.1244 45.7735L130.569 68.547L170.014 45.7735Z" fill="#F40058"/>
<path d="M169.941 91.3205V45.7735L130.496 68.547L130.496 114.094L169.941 91.3205Z" fill="#A6003C"/>
<path d="M130.569 68.547V114.094L91.1244 91.3205L91.1244 45.7735L130.569 68.547Z" fill="#CB0049"/>
</g>
<defs>
<filter id="filter0_f_534_118" x="33.8561" y="31.287" width="193.849" height="183.323" filterUnits="userSpaceOnUse" color-interpolation-filters="sRGB">
<feFlood flood-opacity="0" result="BackgroundImageFix"/>
<feBlend mode="normal" in="SourceGraphic" in2="BackgroundImageFix" result="shape"/>
<feGaussianBlur stdDeviation="4" result="effect1_foregroundBlur_534_118"/>
</filter>
<filter id="filter1_iif_534_118" x="77" y="28" width="106.89" height="131.094" filterUnits="userSpaceOnUse" color-interpolation-filters="sRGB">
<feFlood flood-opacity="0" result="BackgroundImageFix"/>
<feBlend mode="normal" in="SourceGraphic" in2="BackgroundImageFix" result="shape"/>
<feColorMatrix in="SourceAlpha" type="matrix" values="0 0 0 0 0 0 0 0 0 0 0 0 0 0 0 0 0 0 127 0" result="hardAlpha"/>
<feOffset dy="-20"/>
<feGaussianBlur stdDeviation="10"/>
<feComposite in2="hardAlpha" operator="arithmetic" k2="-1" k3="1"/>
<feColorMatrix type="matrix" values="0 0 0 0 0 0 0 0 0 0 0 0 0 0 0 0 0 0 0.3 0"/>
<feBlend mode="normal" in2="shape" result="effect1_innerShadow_534_118"/>
<feColorMatrix in="SourceAlpha" type="matrix" values="0 0 0 0 0 0 0 0 0 0 0 0 0 0 0 0 0 0 127 0" result="hardAlpha"/>
<feOffset dy="20"/>
<feGaussianBlur stdDeviation="10"/>
<feComposite in2="hardAlpha" operator="arithmetic" k2="-1" k3="1"/>
<feColorMatrix type="matrix" values="0 0 0 0 1 0 0 0 0 1 0 0 0 0 1 0 0 0 0.1 0"/>
<feBlend mode="normal" in2="effect1_innerShadow_534_118" result="effect2_innerShadow_534_118"/>
<feGaussianBlur stdDeviation="7" result="effect3_foregroundBlur_534_118"/>
</filter>
<filter id="filter2_ii_534_118" x="91.1244" y="3" width="78.8898" height="131.094" filterUnits="userSpaceOnUse" color-interpolation-filters="sRGB">
<feFlood flood-opacity="0" result="BackgroundImageFix"/>
<feBlend mode="normal" in="SourceGraphic" in2="BackgroundImageFix" result="shape"/>
<feColorMatrix in="SourceAlpha" type="matrix" values="0 0 0 0 0 0 0 0 0 0 0 0 0 0 0 0 0 0 127 0" result="hardAlpha"/>
<feOffset dy="-20"/>
<feGaussianBlur stdDeviation="10"/>
<feComposite in2="hardAlpha" operator="arithmetic" k2="-1" k3="1"/>
<feColorMatrix type="matrix" values="0 0 0 0 0 0 0 0 0 0 0 0 0 0 0 0 0 0 0.3 0"/>
<feBlend mode="normal" in2="shape" result="effect1_innerShadow_534_118"/>
<feColorMatrix in="SourceAlpha" type="matrix" values="0 0 0 0 0 0 0 0 0 0 0 0 0 0 0 0 0 0 127 0" result="hardAlpha"/>
<feOffset dy="20"/>
<feGaussianBlur stdDeviation="10"/>
<feComposite in2="hardAlpha" operator="arithmetic" k2="-1" k3="1"/>
<feColorMatrix type="matrix" values="0 0 0 0 1 0 0 0 0 1 0 0 0 0 1 0 0 0 0.1 0"/>
<feBlend mode="normal" in2="effect1_innerShadow_534_118" result="effect2_innerShadow_534_118"/>
</filter>
<linearGradient id="paint0_linear_534_118" x1="179.706" y1="60.712" x2="232.663" y2="163.076" gradientUnits="userSpaceOnUse">
<stop stop-color="#434342"/>
<stop offset="1" stop-color="#101010"/>
</linearGradient>
<linearGradient id="paint1_linear_534_118" x1="43.2503" y1="0" x2="43.2503" y2="135.602" gradientUnits="userSpaceOnUse">
<stop stop-color="#C7C582"/>
<stop offset="1" stop-color="#3A3A2D"/>
</linearGradient>
<linearGradient id="paint2_linear_534_118" x1="81.856" y1="60.712" x2="28.8981" y2="163.076" gradientUnits="userSpaceOnUse">
<stop stop-color="#434342"/>
<stop offset="1" stop-color="#101010"/>
</linearGradient>
<linearGradient id="paint3_linear_534_118" x1="43.2503" y1="0" x2="43.2503" y2="135.602" gradientUnits="userSpaceOnUse">
<stop stop-color="#C7C582"/>
<stop offset="1" stop-color="#3A3A2D"/>
</linearGradient>
<linearGradient id="paint4_linear_534_118" x1="179.706" y1="56.2316" x2="232.663" y2="158.596" gradientUnits="userSpaceOnUse">
<stop stop-color="#7B7C40"/>
<stop offset="1" stop-color="#101010"/>
</linearGradient>
<linearGradient id="paint5_linear_534_118" x1="43.2503" y1="0" x2="43.2503" y2="135.602" gradientUnits="userSpaceOnUse">
<stop stop-color="#C7C582"/>
<stop offset="1" stop-color="#3A3A2D"/>
</linearGradient>
<linearGradient id="paint6_linear_534_118" x1="81.856" y1="56.2316" x2="28.8981" y2="158.596" gradientUnits="userSpaceOnUse">
<stop stop-color="#7B7C40"/>
<stop offset="1" stop-color="#101010"/>
</linearGradient>
<linearGradient id="paint7_linear_534_118" x1="43.2503" y1="0" x2="43.2503" y2="135.602" gradientUnits="userSpaceOnUse">
<stop stop-color="#C7C582"/>
<stop offset="1" stop-color="#3A3A2D"/>
</linearGradient>
</defs>
</svg>
